<svg width="32" height="32" xmlns="http://www.w3.org/2000/svg">

 <g>
  <title>background</title>
  <rect fill="none" id="canvas_background" height="402" width="582" y="-1" x="-1"/>
 </g>
 <g>
  <title>Layer 1</title>
  <path fill="#3a589b" id="svg_1" d="m13.892,24.122999l3.357,0l0,-8.124l2.239,0l0.296999,-2.799l-2.535999,0l0.003,-1.401999c0,-0.73 0.07,-1.121 1.116999,-1.121l1.4,0l0,-2.8l-2.24,0c-2.69,0 -3.636999,1.358 -3.636999,3.642l0,1.681l-1.677,0l0,2.8l1.677,0l0,8.122999z"/>
  <path id="svg_7" fill="#3a589b" d="m16,1c8.271,0 15,6.729 15,15s-6.729,15 -15,15s-15,-6.729 -15,-15s6.729,-15 15,-15m0,-1c-8.837,0 -16,7.163 -16,16s7.163,16 16,16s16,-7.163 16,-16s-7.163,-16 -16,-16l0,0z"/>
  <path id="svg_11" fill="#3a589b" d="m16,3.007c7.165001,0 12.993,5.829 12.993,12.993s-5.829,12.993 -12.993,12.993s-12.993,-5.829 -12.993,-12.993s5.828,-12.993 12.993,-12.993m0,-0.5c-7.453,0 -13.493,6.04 -13.493,13.493s6.04,13.493 13.493,13.493s13.493,-6.041 13.493,-13.493s-6.041,-13.493 -13.493,-13.493l0,0z"/>
 </g>
</svg>