<svg width="32" height="32" xmlns="http://www.w3.org/2000/svg">

 <g>
  <title>background</title>
  <rect fill="none" id="canvas_background" height="402" width="582" y="-1" x="-1"/>
 </g>
 <g>
  <title>Layer 1</title>
  <path fill-rule="evenodd" clip-rule="evenodd" fill="#ffffff" id="Github" d="m15.95365,0c-8.800001,0 -16,7.2 -16,16c0,8.799999 7.2,16 16,16c8.799998,0 15.999999,-7.200001 15.999999,-16c0,-8.8 -7.200001,-16 -15.999999,-16zm3.999999,29.700001c0,-0.1 0,-0.200001 0,-0.300001c0,-0.5 0,-2.299999 0,-4.4c0,-1.5 -0.5,-2.5 -1.1,-3c3.6,-0.4 7.300001,-1.799999 7.300001,-7.9c0,-1.700001 -0.6,-3.200001 -1.6,-4.3c0.199999,-0.400001 0.699999,-2 -0.200001,-4.2c0,0 -1.299999,-0.4 -4.4,1.6c-1.299999,-0.4 -2.6,-0.5 -3.999999,-0.5c-1.4,0 -2.7,0.2 -4,0.5c-3.1,-2 -4.400001,-1.6 -4.400001,-1.6c-0.9,2.2 -0.3,3.9 -0.2,4.3c-1,1.1 -1.6,2.5 -1.6,4.3c0,6.099999 3.7,7.500001 7.300001,7.900001c-0.5,0.4 -0.900001,1.1 -1,2.1c-0.900001,0.4 -3.200001,1.099998 -4.700001,-1.300001c0,0 -0.8,-1.5 -2.5,-1.6c0,0 -1.6,0 -0.1,1c0,0 1,0.5 1.8,2.300001c0,0 0.9,3.1 5.400001,2.1c0,1.299999 0,2.299999 0,2.699999c0,0.1 0,0.200001 0,0.200001c-5.800001,-1.700001 -10,-7 -10,-13.300001c0,-7.699999 6.300001,-13.999999 14,-13.999999c7.7,0 13.999999,6.3 13.999999,13.999999c0,6.300001 -4.200001,11.6 -10,13.400002z"/>
 </g>
</svg>