<svg width="39.99999186000165" height="39.99999186000165" xmlns="http://www.w3.org/2000/svg">
 <defs>
  <linearGradient y2="0" x2="1" y1="1" x1="0" id="svg_6">
   <stop offset="0" stop-opacity="0.996094" stop-color="rgb(255, 177, 64)"/>
   <stop offset="0.324219" stop-opacity="0.996094" stop-color="rgb(255, 84, 69)"/>
   <stop offset="0.679688" stop-opacity="0.996094" stop-color="rgb(252, 43, 130)"/>
   <stop offset="1" stop-opacity="0.996094" stop-color="rgb(142, 64, 183)"/>
  </linearGradient>
  <linearGradient y2="0" x2="1" y1="1" x1="0" id="svg_7">
   <stop offset="0" stop-opacity="0.996094" stop-color="rgb(255, 177, 64)"/>
   <stop offset="0.308594" stop-opacity="0.996094" stop-color="rgb(255, 84, 69)"/>
   <stop offset="0.640625" stop-opacity="0.996094" stop-color="rgb(252, 43, 130)"/>
   <stop offset="1" stop-opacity="0.996094" stop-color="rgb(142, 64, 183)"/>
  </linearGradient>
 </defs>
 <g>
  <title>background</title>
  <rect height="402" width="582" y="-1" x="-1" fill="none" id="canvas_background"/>
 </g>
 <g>
  <title>Layer 1</title>
  <path d="m20,2c9.924999,0 18,8.075 18,18s-8.073999,18 -18,18s-18,-8.075001 -18,-18s8.075,-18 18,-18m0,-2c-11.046,0 -20,8.954 -20,20c0,11.047001 8.954,20 20,20c11.044001,0 20,-8.952999 20,-20c0,-11.046 -8.955,-20 -20,-20l0,0z" fill="url(#svg_7)" id="svg_3"/>
  <path d="m12.537,10.641l14.926,0c1.416,0 2.576,1.159 2.576,2.577001l0,14.924999c0,1.418001 -1.16,2.577 -2.576,2.577l-14.926,0c-1.417,0 -2.577,-1.158998 -2.577,-2.577l0,-14.924999c0,-1.418 1.16,-2.577001 2.577,-2.577001l0,0zm12.051,2.231c-0.497999,0 -0.903999,0.407001 -0.903999,0.904l0,2.164c0,0.497001 0.406,0.903001 0.903999,0.903001l2.27,0c0.496,0 0.902,-0.406 0.902,-0.903001l0,-2.164c0,-0.497 -0.406,-0.904 -0.902,-0.904l-2.27,0l0,0zm3.182001,6.26l-1.768,0c0.167999,0.546 0.257999,1.124001 0.257999,1.724001c0,3.339998 -2.795,6.046999 -6.24,6.046999c-3.447001,0 -6.243,-2.707001 -6.243,-6.046999c0,-0.6 0.091,-1.178001 0.257999,-1.724001l-1.844,0l0,8.482c0,0.438999 0.358,0.799 0.798,0.799l13.983,0c0.438,0 0.796999,-0.358999 0.796999,-0.799l0,-8.482l0.001001,0zm-7.75,-2.402c-2.229,0 -4.034,1.749001 -4.034,3.907c0,2.159 1.805,3.909 4.034,3.909c2.226,0 4.031,-1.75 4.031,-3.909c0,-2.157999 -1.805,-3.907 -4.031,-3.907z" fill-rule="evenodd" fill="url(#svg_6)" clip-rule="evenodd" id="svg_4"/>
 </g>
</svg>